<?xml version="1.0" encoding="UTF-8" standalone="no"?>
<!DOCTYPE svg PUBLIC "-//W3C//DTD SVG 1.1//EN"
 "http://www.w3.org/Graphics/SVG/1.1/DTD/svg11.dtd">
<!-- Generated by graphviz version 2.36.0 (20140111.2315)
 -->
<!-- Title: controllers_diagram Pages: 1 -->
<svg width="579pt" height="477pt"
 viewBox="0.00 0.00 579.00 477.00" xmlns="http://www.w3.org/2000/svg" xmlns:xlink="http://www.w3.org/1999/xlink">
<g id="graph0" class="graph" transform="scale(1 1) rotate(0) translate(4 473)">
<title>controllers_diagram</title>
<polygon fill="white" stroke="none" points="-4,4 -4,-473 575,-473 575,4 -4,4"/>
<!-- _diagram_info -->
<g id="node1" class="node"><title>_diagram_info</title>
<text text-anchor="start" x="365" y="-335.6" font-family="Times,serif" font-size="13.00">Controllers diagram</text>
<text text-anchor="start" x="365" y="-321.6" font-family="Times,serif" font-size="13.00">Date: Jun 10 2015 &#45; 15:04</text>
<text text-anchor="start" x="365" y="-307.6" font-family="Times,serif" font-size="13.00">Migration version: 20150610073308</text>
<text text-anchor="start" x="365" y="-293.6" font-family="Times,serif" font-size="13.00">Generated by RailRoady 1.3.0</text>
<text text-anchor="start" x="365" y="-279.6" font-family="Times,serif" font-size="13.00">http://railroady.prestonlee.com</text>
</g>
<!-- StoreController -->
<g id="node2" class="node"><title>StoreController</title>
<path fill="none" stroke="black" d="M12,-204.5C12,-204.5 89,-204.5 89,-204.5 95,-204.5 101,-210.5 101,-216.5 101,-216.5 101,-285.5 101,-285.5 101,-291.5 95,-297.5 89,-297.5 89,-297.5 12,-297.5 12,-297.5 6,-297.5 -2.84217e-14,-291.5 -2.84217e-14,-285.5 -2.84217e-14,-285.5 -2.84217e-14,-216.5 -2.84217e-14,-216.5 -2.84217e-14,-210.5 6,-204.5 12,-204.5"/>
<text text-anchor="middle" x="50.5" y="-282.3" font-family="Times,serif" font-size="14.00">StoreController</text>
<polyline fill="none" stroke="black" points="-2.84217e-14,-274.5 101,-274.5 "/>
<text text-anchor="start" x="8" y="-259.3" font-family="Times,serif" font-size="14.00">index</text>
<polyline fill="none" stroke="black" points="-2.84217e-14,-251.5 101,-251.5 "/>
<polyline fill="none" stroke="black" points="-2.84217e-14,-227.5 101,-227.5 "/>
<text text-anchor="start" x="8" y="-212.3" font-family="Times,serif" font-size="14.00">_layout</text>
</g>
<!-- ApplicationController -->
<g id="node3" class="node"><title>ApplicationController</title>
<path fill="none" stroke="black" d="M12,-323.5C12,-323.5 124,-323.5 124,-323.5 130,-323.5 136,-329.5 136,-335.5 136,-335.5 136,-420.5 136,-420.5 136,-426.5 130,-432.5 124,-432.5 124,-432.5 12,-432.5 12,-432.5 6,-432.5 -2.84217e-14,-426.5 -2.84217e-14,-420.5 -2.84217e-14,-420.5 -2.84217e-14,-335.5 -2.84217e-14,-335.5 -2.84217e-14,-329.5 6,-323.5 12,-323.5"/>
<text text-anchor="middle" x="68" y="-417.3" font-family="Times,serif" font-size="14.00">ApplicationController</text>
<polyline fill="none" stroke="black" points="-2.84217e-14,-409.5 136,-409.5 "/>
<polyline fill="none" stroke="black" points="-2.84217e-14,-385.5 136,-385.5 "/>
<polyline fill="none" stroke="black" points="-2.84217e-14,-361.5 136,-361.5 "/>
<text text-anchor="start" x="8" y="-346.3" font-family="Times,serif" font-size="14.00">_layout</text>
<text text-anchor="start" x="8" y="-331.3" font-family="Times,serif" font-size="14.00">current_cart</text>
</g>
<!-- ProductsController -->
<g id="node4" class="node"><title>ProductsController</title>
<path fill="none" stroke="black" d="M318,-17.5C318,-17.5 413,-17.5 413,-17.5 419,-17.5 425,-23.5 425,-29.5 425,-29.5 425,-218.5 425,-218.5 425,-224.5 419,-230.5 413,-230.5 413,-230.5 318,-230.5 318,-230.5 312,-230.5 306,-224.5 306,-218.5 306,-218.5 306,-29.5 306,-29.5 306,-23.5 312,-17.5 318,-17.5"/>
<text text-anchor="middle" x="365.5" y="-215.3" font-family="Times,serif" font-size="14.00">ProductsController</text>
<polyline fill="none" stroke="black" points="306,-207.5 425,-207.5 "/>
<text text-anchor="start" x="314" y="-192.3" font-family="Times,serif" font-size="14.00">create</text>
<text text-anchor="start" x="314" y="-177.3" font-family="Times,serif" font-size="14.00">destroy</text>
<text text-anchor="start" x="314" y="-162.3" font-family="Times,serif" font-size="14.00">edit</text>
<text text-anchor="start" x="314" y="-147.3" font-family="Times,serif" font-size="14.00">index</text>
<text text-anchor="start" x="314" y="-132.3" font-family="Times,serif" font-size="14.00">new</text>
<text text-anchor="start" x="314" y="-117.3" font-family="Times,serif" font-size="14.00">show</text>
<text text-anchor="start" x="314" y="-102.3" font-family="Times,serif" font-size="14.00">update</text>
<polyline fill="none" stroke="black" points="306,-94.5 425,-94.5 "/>
<polyline fill="none" stroke="black" points="306,-70.5 425,-70.5 "/>
<text text-anchor="start" x="314" y="-55.3" font-family="Times,serif" font-size="14.00">_layout</text>
<text text-anchor="start" x="314" y="-40.3" font-family="Times,serif" font-size="14.00">product_params</text>
<text text-anchor="start" x="314" y="-25.3" font-family="Times,serif" font-size="14.00">set_product</text>
</g>
<!-- CartsController -->
<g id="node5" class="node"><title>CartsController</title>
<path fill="none" stroke="black" d="M182,-255.5C182,-255.5 259,-255.5 259,-255.5 265,-255.5 271,-261.5 271,-267.5 271,-267.5 271,-456.5 271,-456.5 271,-462.5 265,-468.5 259,-468.5 259,-468.5 182,-468.5 182,-468.5 176,-468.5 170,-462.5 170,-456.5 170,-456.5 170,-267.5 170,-267.5 170,-261.5 176,-255.5 182,-255.5"/>
<text text-anchor="middle" x="220.5" y="-453.3" font-family="Times,serif" font-size="14.00">CartsController</text>
<polyline fill="none" stroke="black" points="170,-445.5 271,-445.5 "/>
<text text-anchor="start" x="178" y="-430.3" font-family="Times,serif" font-size="14.00">create</text>
<text text-anchor="start" x="178" y="-415.3" font-family="Times,serif" font-size="14.00">destroy</text>
<text text-anchor="start" x="178" y="-400.3" font-family="Times,serif" font-size="14.00">edit</text>
<text text-anchor="start" x="178" y="-385.3" font-family="Times,serif" font-size="14.00">index</text>
<text text-anchor="start" x="178" y="-370.3" font-family="Times,serif" font-size="14.00">new</text>
<text text-anchor="start" x="178" y="-355.3" font-family="Times,serif" font-size="14.00">show</text>
<text text-anchor="start" x="178" y="-340.3" font-family="Times,serif" font-size="14.00">update</text>
<polyline fill="none" stroke="black" points="170,-332.5 271,-332.5 "/>
<polyline fill="none" stroke="black" points="170,-308.5 271,-308.5 "/>
<text text-anchor="start" x="178" y="-293.3" font-family="Times,serif" font-size="14.00">_layout</text>
<text text-anchor="start" x="178" y="-278.3" font-family="Times,serif" font-size="14.00">cart_params</text>
<text text-anchor="start" x="178" y="-263.3" font-family="Times,serif" font-size="14.00">set_cart</text>
</g>
<!-- LineItemsController -->
<g id="node6" class="node"><title>LineItemsController</title>
<path fill="none" stroke="black" d="M148,-0.5C148,-0.5 252,-0.5 252,-0.5 258,-0.5 264,-6.5 264,-12.5 264,-12.5 264,-201.5 264,-201.5 264,-207.5 258,-213.5 252,-213.5 252,-213.5 148,-213.5 148,-213.5 142,-213.5 136,-207.5 136,-201.5 136,-201.5 136,-12.5 136,-12.5 136,-6.5 142,-0.5 148,-0.5"/>
<text text-anchor="middle" x="200" y="-198.3" font-family="Times,serif" font-size="14.00">LineItemsController</text>
<polyline fill="none" stroke="black" points="136,-190.5 264,-190.5 "/>
<text text-anchor="start" x="144" y="-175.3" font-family="Times,serif" font-size="14.00">create</text>
<text text-anchor="start" x="144" y="-160.3" font-family="Times,serif" font-size="14.00">destroy</text>
<text text-anchor="start" x="144" y="-145.3" font-family="Times,serif" font-size="14.00">edit</text>
<text text-anchor="start" x="144" y="-130.3" font-family="Times,serif" font-size="14.00">index</text>
<text text-anchor="start" x="144" y="-115.3" font-family="Times,serif" font-size="14.00">new</text>
<text text-anchor="start" x="144" y="-100.3" font-family="Times,serif" font-size="14.00">show</text>
<text text-anchor="start" x="144" y="-85.3" font-family="Times,serif" font-size="14.00">update</text>
<polyline fill="none" stroke="black" points="136,-77.5 264,-77.5 "/>
<polyline fill="none" stroke="black" points="136,-53.5 264,-53.5 "/>
<text text-anchor="start" x="144" y="-38.3" font-family="Times,serif" font-size="14.00">_layout</text>
<text text-anchor="start" x="144" y="-23.3" font-family="Times,serif" font-size="14.00">line_item_params</text>
<text text-anchor="start" x="144" y="-8.3" font-family="Times,serif" font-size="14.00">set_line_item</text>
</g>
</g>
</svg>
