<?xml version="1.0" encoding="UTF-8" standalone="no"?>
<!DOCTYPE svg PUBLIC "-//W3C//DTD SVG 1.1//EN"
 "http://www.w3.org/Graphics/SVG/1.1/DTD/svg11.dtd">
<!-- Generated by graphviz version 2.36.0 (20140111.2315)
 -->
<!-- Title: models_diagram Pages: 1 -->
<svg width="388pt" height="158pt"
 viewBox="0.00 0.00 388.00 158.00" xmlns="http://www.w3.org/2000/svg" xmlns:xlink="http://www.w3.org/1999/xlink">
<g id="graph0" class="graph" transform="scale(1 1) rotate(0) translate(4 154)">
<title>models_diagram</title>
<polygon fill="white" stroke="none" points="-4,4 -4,-154 384,-154 384,4 -4,4"/>
<!-- _diagram_info -->
<g id="node1" class="node"><title>_diagram_info</title>
<text text-anchor="start" x="8" y="-135.6" font-family="Times,serif" font-size="13.00">Models diagram</text>
<text text-anchor="start" x="8" y="-121.6" font-family="Times,serif" font-size="13.00">Date: Jun 10 2015 &#45; 15:04</text>
<text text-anchor="start" x="8" y="-107.6" font-family="Times,serif" font-size="13.00">Migration version: 20150610073308</text>
<text text-anchor="start" x="8" y="-93.6" font-family="Times,serif" font-size="13.00">Generated by RailRoady 1.3.0</text>
<text text-anchor="start" x="8" y="-79.6" font-family="Times,serif" font-size="13.00">http://railroady.prestonlee.com</text>
</g>
<!-- Product -->
<g id="node2" class="node"><title>Product</title>
<ellipse fill="none" stroke="black" cx="270" cy="-111" rx="38.0212" ry="18"/>
<text text-anchor="middle" x="270" y="-107.3" font-family="Times,serif" font-size="14.00">Product</text>
</g>
<!-- LineItem -->
<g id="node3" class="node"><title>LineItem</title>
<ellipse fill="none" stroke="black" cx="311" cy="-18" rx="43.319" ry="18"/>
<text text-anchor="middle" x="311" y="-14.3" font-family="Times,serif" font-size="14.00">LineItem</text>
</g>
<!-- Product&#45;&gt;LineItem -->
<g id="edge1" class="edge"><title>Product&#45;&gt;LineItem</title>
<path fill="none" stroke="#eb28af" d="M280.825,-85.9739C286.486,-73.4092 293.424,-58.0096 299.22,-45.1464"/>
<ellipse fill="none" stroke="#eb28af" cx="279.163" cy="-89.6623" rx="4.00002" ry="4.00002"/>
<polygon fill="#eb28af" stroke="#eb28af" points="299.281,-45.0105 307.492,-37.7417 301.335,-40.4518 303.389,-35.8932 303.389,-35.8932 303.389,-35.8932 301.335,-40.4518 299.286,-34.0446 299.281,-45.0105 299.281,-45.0105"/>
</g>
<!-- Cart -->
<g id="node4" class="node"><title>Cart</title>
<ellipse fill="none" stroke="black" cx="353" cy="-111" rx="27" ry="18"/>
<text text-anchor="middle" x="353" y="-107.3" font-family="Times,serif" font-size="14.00">Cart</text>
</g>
<!-- Cart&#45;&gt;LineItem -->
<g id="edge2" class="edge"><title>Cart&#45;&gt;LineItem</title>
<path fill="none" stroke="#47cbf4" d="M341.911,-85.9739C336.112,-73.4092 329.004,-58.0096 323.068,-45.1464"/>
<ellipse fill="none" stroke="#47cbf4" cx="343.62" cy="-89.6774" rx="4.00002" ry="4.00002"/>
<polygon fill="#47cbf4" stroke="#47cbf4" points="322.987,-44.9728 322.883,-34.0074 320.892,-40.433 318.797,-35.8932 318.797,-35.8932 318.797,-35.8932 320.892,-40.433 314.711,-37.7789 322.987,-44.9728 322.987,-44.9728"/>
</g>
</g>
</svg>
