<?xml version="1.0" encoding="UTF-8" standalone="no"?>
<!DOCTYPE svg PUBLIC "-//W3C//DTD SVG 1.1//EN"
 "http://www.w3.org/Graphics/SVG/1.1/DTD/svg11.dtd">
<!-- Generated by graphviz version 2.36.0 (20140111.2315)
 -->
<!-- Title: models_diagram Pages: 1 -->
<svg width="520pt" height="290pt"
 viewBox="0.00 0.00 520.00 290.00" xmlns="http://www.w3.org/2000/svg" xmlns:xlink="http://www.w3.org/1999/xlink">
<g id="graph0" class="graph" transform="scale(1 1) rotate(0) translate(4 286)">
<title>models_diagram</title>
<polygon fill="white" stroke="none" points="-4,4 -4,-286 516,-286 516,4 -4,4"/>
<!-- _diagram_info -->
<g id="node1" class="node"><title>_diagram_info</title>
<text text-anchor="start" x="8" y="-237.6" font-family="Times,serif" font-size="13.00">Models diagram</text>
<text text-anchor="start" x="8" y="-223.6" font-family="Times,serif" font-size="13.00">Date: Jun 10 2015 &#45; 15:04</text>
<text text-anchor="start" x="8" y="-209.6" font-family="Times,serif" font-size="13.00">Migration version: 20150610073308</text>
<text text-anchor="start" x="8" y="-195.6" font-family="Times,serif" font-size="13.00">Generated by RailRoady 1.3.0</text>
<text text-anchor="start" x="8" y="-181.6" font-family="Times,serif" font-size="13.00">http://railroady.prestonlee.com</text>
</g>
<!-- Product -->
<g id="node2" class="node"><title>Product</title>
<path fill="none" stroke="black" d="M244.5,-145C244.5,-145 351.5,-145 351.5,-145 357.5,-145 363.5,-151 363.5,-157 363.5,-157 363.5,-269 363.5,-269 363.5,-275 357.5,-281 351.5,-281 351.5,-281 244.5,-281 244.5,-281 238.5,-281 232.5,-275 232.5,-269 232.5,-269 232.5,-157 232.5,-157 232.5,-151 238.5,-145 244.5,-145"/>
<text text-anchor="middle" x="298" y="-265.8" font-family="Times,serif" font-size="14.00">Product</text>
<polyline fill="none" stroke="black" points="232.5,-258 363.5,-258 "/>
<text text-anchor="start" x="240.5" y="-242.8" font-family="Times,serif" font-size="14.00">id :integer</text>
<text text-anchor="start" x="240.5" y="-227.8" font-family="Times,serif" font-size="14.00">title :string</text>
<text text-anchor="start" x="240.5" y="-212.8" font-family="Times,serif" font-size="14.00">description :text</text>
<text text-anchor="start" x="240.5" y="-197.8" font-family="Times,serif" font-size="14.00">image_url :string</text>
<text text-anchor="start" x="240.5" y="-182.8" font-family="Times,serif" font-size="14.00">price :decimal</text>
<text text-anchor="start" x="240.5" y="-167.8" font-family="Times,serif" font-size="14.00">created_at :datetime</text>
<text text-anchor="start" x="240.5" y="-152.8" font-family="Times,serif" font-size="14.00">updated_at :datetime</text>
</g>
<!-- LineItem -->
<g id="node3" class="node"><title>LineItem</title>
<path fill="none" stroke="black" d="M318.5,-1C318.5,-1 425.5,-1 425.5,-1 431.5,-1 437.5,-7 437.5,-13 437.5,-13 437.5,-95 437.5,-95 437.5,-101 431.5,-107 425.5,-107 425.5,-107 318.5,-107 318.5,-107 312.5,-107 306.5,-101 306.5,-95 306.5,-95 306.5,-13 306.5,-13 306.5,-7 312.5,-1 318.5,-1"/>
<text text-anchor="middle" x="372" y="-91.8" font-family="Times,serif" font-size="14.00">LineItem</text>
<polyline fill="none" stroke="black" points="306.5,-84 437.5,-84 "/>
<text text-anchor="start" x="314.5" y="-68.8" font-family="Times,serif" font-size="14.00">id :integer</text>
<text text-anchor="start" x="314.5" y="-53.8" font-family="Times,serif" font-size="14.00">product_id :integer</text>
<text text-anchor="start" x="314.5" y="-38.8" font-family="Times,serif" font-size="14.00">cart_id :integer</text>
<text text-anchor="start" x="314.5" y="-23.8" font-family="Times,serif" font-size="14.00">created_at :datetime</text>
<text text-anchor="start" x="314.5" y="-8.8" font-family="Times,serif" font-size="14.00">updated_at :datetime</text>
</g>
<!-- Product&#45;&gt;LineItem -->
<g id="edge1" class="edge"><title>Product&#45;&gt;LineItem</title>
<path fill="none" stroke="#bd75a2" d="M333.113,-137.503C336.444,-130.436 339.796,-123.324 343.06,-116.4"/>
<ellipse fill="none" stroke="#bd75a2" cx="331.303" cy="-141.344" rx="4.00002" ry="4.00002"/>
<polygon fill="#bd75a2" stroke="#bd75a2" points="343.182,-116.14 351.516,-109.013 345.314,-111.618 347.446,-107.095 347.446,-107.095 347.446,-107.095 345.314,-111.618 343.375,-105.176 343.182,-116.14 343.182,-116.14"/>
</g>
<!-- Cart -->
<g id="node4" class="node"><title>Cart</title>
<path fill="none" stroke="black" d="M393.5,-175C393.5,-175 500.5,-175 500.5,-175 506.5,-175 512.5,-181 512.5,-187 512.5,-187 512.5,-239 512.5,-239 512.5,-245 506.5,-251 500.5,-251 500.5,-251 393.5,-251 393.5,-251 387.5,-251 381.5,-245 381.5,-239 381.5,-239 381.5,-187 381.5,-187 381.5,-181 387.5,-175 393.5,-175"/>
<text text-anchor="middle" x="447" y="-235.8" font-family="Times,serif" font-size="14.00">Cart</text>
<polyline fill="none" stroke="black" points="381.5,-228 512.5,-228 "/>
<text text-anchor="start" x="389.5" y="-212.8" font-family="Times,serif" font-size="14.00">id :integer</text>
<text text-anchor="start" x="389.5" y="-197.8" font-family="Times,serif" font-size="14.00">created_at :datetime</text>
<text text-anchor="start" x="389.5" y="-182.8" font-family="Times,serif" font-size="14.00">updated_at :datetime</text>
</g>
<!-- Cart&#45;&gt;LineItem -->
<g id="edge2" class="edge"><title>Cart&#45;&gt;LineItem</title>
<path fill="none" stroke="#6b0aae" d="M425.736,-167.487C418.155,-151.617 409.477,-133.451 401.338,-116.414"/>
<ellipse fill="none" stroke="#6b0aae" cx="427.502" cy="-171.184" rx="4.00002" ry="4.00002"/>
<polygon fill="#6b0aae" stroke="#6b0aae" points="401.192,-116.109 400.942,-105.146 399.037,-111.598 396.882,-107.086 396.882,-107.086 396.882,-107.086 399.037,-111.598 392.821,-109.026 401.192,-116.109 401.192,-116.109"/>
</g>
</g>
</svg>
